<?xml version="1.0" encoding="utf-8"?>
<!-- Generator: Adobe Illustrator 28.2.0, SVG Export Plug-In . SVG Version: 6.00 Build 0)  -->
<svg version="1.1" id="Layer_1" xmlns="http://www.w3.org/2000/svg" xmlns:xlink="http://www.w3.org/1999/xlink" x="0px" y="0px"
	 viewBox="0 0 500 500" style="enable-background:new 0 0 500 500;" xml:space="preserve">
<style type="text/css">
	.st0{clip-path:url(#SVGID_00000043438023225381140540000007908398301491221391_);}
	.st1{fill:#256D9E;}
	.st2{clip-path:url(#SVGID_00000163061591674907660930000017472394054465411486_);}
	.st3{clip-path:url(#SVGID_00000066504135424285777500000014646246477014880446_);}
	.st4{clip-path:url(#SVGID_00000098927223478554959120000014824678209679038619_);}
	.st5{clip-path:url(#SVGID_00000124858342768313135720000008971633273278858387_);}
	.st6{clip-path:url(#SVGID_00000055692915128627732820000006411409759819306939_);}
	.st7{clip-path:url(#SVGID_00000157998075702926851210000003761899762428853153_);}
</style>
<g>
	<g>
		<defs>
			<rect id="SVGID_1_" x="126.5" y="234" width="226" height="232.5"/>
		</defs>
		<clipPath id="SVGID_00000014612959524787263720000013026669148546289557_">
			<use xlink:href="#SVGID_1_"  style="overflow:visible;"/>
		</clipPath>
		<g style="clip-path:url(#SVGID_00000014612959524787263720000013026669148546289557_);">
			<path class="st1" d="M128.1,235.5h224.4v302.3H128.1V235.5z"/>
		</g>
	</g>
</g>
<g>
	<g>
		<defs>
			<rect id="SVGID_00000037653158805788117400000002300991544883796638_" x="126.5" y="234" width="226.5" height="232.5"/>
		</defs>
		<clipPath id="SVGID_00000120531452218622414930000004485733692032391840_">
			<use xlink:href="#SVGID_00000037653158805788117400000002300991544883796638_"  style="overflow:visible;"/>
		</clipPath>
		<g style="clip-path:url(#SVGID_00000120531452218622414930000004485733692032391840_);">
			<path class="st1" d="M351.9,539.9H128.1c-1.1,0-1.6-0.7-1.6-2.2V235.5c0-1.5,0.5-2.2,1.6-2.2h224.4c1.1,0,1.6,0.7,1.6,2.2v302.3
				C353.6,539.2,353,539.9,351.9,539.9z M129.2,535.6h221.1V237.6H129.2V535.6z"/>
		</g>
	</g>
</g>
<g>
	<g>
		<defs>
			<rect id="SVGID_00000056425558751597311480000003761408922349497480_" x="126.5" y="34.2" width="226.5" height="122.8"/>
		</defs>
		<clipPath id="SVGID_00000073701168070146705410000005208679035800070024_">
			<use xlink:href="#SVGID_00000056425558751597311480000003761408922349497480_"  style="overflow:visible;"/>
		</clipPath>
		<g style="clip-path:url(#SVGID_00000073701168070146705410000005208679035800070024_);">
			<path class="st1" d="M128.1,35.6h224.4v302.3H128.1V35.6z"/>
		</g>
	</g>
</g>
<g>
	<g>
		<defs>
			<rect id="SVGID_00000143580306790892164530000018300665490397431228_" x="126.5" y="33.5" width="226.5" height="123.5"/>
		</defs>
		<clipPath id="SVGID_00000180351429757830932630000003428673955167050378_">
			<use xlink:href="#SVGID_00000143580306790892164530000018300665490397431228_"  style="overflow:visible;"/>
		</clipPath>
		<g style="clip-path:url(#SVGID_00000180351429757830932630000003428673955167050378_);">
			<path class="st1" d="M352.5,340.1H128.1c-1.1,0-1.6-0.7-1.6-2.2V35.6c0-1.5,0.5-2.2,1.6-2.2h224.4c1.1,0,1.6,0.7,1.6,2.2v302.3
				C354.1,338.7,353.6,340.1,352.5,340.1z M129.7,335.7h221.1V37.8H129.7V335.7z"/>
		</g>
	</g>
</g>
<g>
	<g>
		<defs>
			<rect id="SVGID_00000011720301945021127060000012374611067578774187_" x="40.2" y="34.9" width="32.4" height="436"/>
		</defs>
		<clipPath id="SVGID_00000181793381475462355310000009264905404482986893_">
			<use xlink:href="#SVGID_00000011720301945021127060000012374611067578774187_"  style="overflow:visible;"/>
		</clipPath>
		<g style="clip-path:url(#SVGID_00000181793381475462355310000009264905404482986893_);">
			<path class="st1" d="M43.4,26.2H476V609H43.4V26.2z"/>
		</g>
	</g>
</g>
<g>
	<g>
		<defs>
			<rect id="SVGID_00000157303523697711026080000013741943104182253960_" x="40.2" y="34.9" width="32.4" height="436"/>
		</defs>
		<clipPath id="SVGID_00000102541906603344519810000008833642907018453175_">
			<use xlink:href="#SVGID_00000157303523697711026080000013741943104182253960_"  style="overflow:visible;"/>
		</clipPath>
		<g style="clip-path:url(#SVGID_00000102541906603344519810000008833642907018453175_);">
			<path class="st1" d="M475.5,612.6H42.9c-1.6,0-2.7-1.5-2.7-3.6V26.2c0-2.2,1.1-3.6,2.7-3.6h432.6c1.6,0,2.7,1.5,2.7,3.6V609
				C478.7,610.4,477.1,612.6,475.5,612.6z M46.1,604.6h426.7V29.8H46.1L46.1,604.6L46.1,604.6z"/>
		</g>
	</g>
</g>
<g>
	<g>
		<defs>
			<rect id="SVGID_00000096739424992912349040000004383301400031495584_" x="411.3" y="29.1" width="48.5" height="436"/>
		</defs>
		<clipPath id="SVGID_00000096059112819102136900000016375313511360778880_">
			<use xlink:href="#SVGID_00000096739424992912349040000004383301400031495584_"  style="overflow:visible;"/>
		</clipPath>
		<g style="clip-path:url(#SVGID_00000096059112819102136900000016375313511360778880_);">
			<path class="st1" d="M414.5,8.8h429.3v578.4H414.5V8.8z"/>
			<path class="st1" d="M843.3,591.5H414c-1.6,0-2.7-1.5-2.7-3.6V9.5c0-2.2,1.1-3.6,2.7-3.6h429.3c1.6,0,2.7,1.5,2.7,3.6v578.4
				C846.6,589.3,844.9,591.5,843.3,591.5z M417.2,583.5h423.4V13.1H417.2V583.5z"/>
		</g>
	</g>
</g>
</svg>
